<?xml version="1.0" standalone="no"?>
<!DOCTYPE svg PUBLIC "-//W3C//DTD SVG 20010904//EN"
 "http://www.w3.org/TR/2001/REC-SVG-20010904/DTD/svg10.dtd">
<svg version="1.0" xmlns="http://www.w3.org/2000/svg"
 width="670.000000pt" height="670.000000pt" viewBox="0 0 670.000000 670.000000"
 preserveAspectRatio="xMidYMid meet">
<metadata>
Created by potrace 1.14, written by Peter Selinger 2001-2017
</metadata>
<g transform="translate(0.000000,670.000000) scale(0.100000,-0.100000)"
fill="#000000" stroke="none">
<path d="M3390 6614 c0 -5 -53 -9 -117 -10 -140 -1 -339 -15 -408 -27 -75 -14
-112 -19 -132 -20 -13 -1 -23 -5 -23 -10 0 -4 -4 -5 -10 -2 -5 3 -15 3 -22 -1
-7 -4 -24 -9 -38 -11 -37 -3 -71 -10 -109 -22 -19 -6 -37 -8 -41 -6 -4 3 -13
-1 -19 -9 -7 -8 -21 -12 -31 -9 -11 3 -20 1 -20 -4 0 -5 -14 -10 -32 -11 -17
-2 -37 -7 -44 -13 -7 -6 -18 -8 -24 -4 -5 3 -10 2 -10 -3 0 -5 -7 -9 -15 -10
-8 -1 -22 -3 -30 -4 -8 -1 -15 -5 -15 -10 0 -4 -3 -7 -7 -7 -5 1 -11 0 -15 -1
-5 -1 -11 -3 -15 -4 -8 -2 -115 -41 -143 -53 -8 -3 -22 -7 -30 -9 -8 -2 -16
-7 -18 -13 -2 -5 -10 -7 -18 -4 -8 3 -14 1 -14 -4 0 -6 -18 -15 -40 -22 -22
-6 -40 -17 -40 -24 0 -7 -4 -6 -10 3 -7 10 -10 11 -10 2 0 -11 -39 -33 -62
-36 -4 -1 -16 -8 -26 -16 -10 -8 -25 -16 -33 -18 -7 -2 -17 -8 -20 -14 -3 -5
-8 -9 -10 -8 -10 4 -56 -19 -68 -34 -7 -9 -17 -14 -21 -11 -5 3 -11 1 -15 -5
-3 -5 -21 -17 -40 -26 -19 -9 -35 -21 -35 -26 0 -5 -5 -6 -10 -3 -6 3 -13 -1
-16 -9 -3 -9 -10 -13 -15 -10 -5 3 -9 0 -9 -5 0 -6 -7 -11 -15 -11 -8 0 -15
-4 -15 -10 0 -5 -5 -10 -11 -10 -6 0 -25 -11 -43 -25 -18 -14 -36 -25 -39 -25
-4 0 -16 -8 -26 -17 -28 -25 -41 -36 -83 -64 -21 -14 -35 -29 -31 -32 3 -4 0
-7 -8 -7 -8 0 -20 -9 -27 -21 -7 -12 -16 -19 -18 -16 -3 2 -23 -13 -44 -35
-22 -21 -40 -36 -40 -33 0 3 -12 -7 -28 -22 -15 -15 -26 -31 -24 -35 1 -4 -4
-8 -11 -8 -8 0 -20 -11 -27 -25 -7 -14 -15 -23 -18 -21 -5 6 -47 -38 -44 -46
1 -5 -5 -8 -13 -8 -8 0 -15 -4 -15 -9 0 -5 -23 -32 -51 -60 -28 -28 -49 -51
-46 -51 5 0 -30 -42 -80 -96 -12 -13 -20 -24 -18 -24 5 0 -20 -33 -48 -62 -10
-11 -16 -22 -13 -25 2 -3 -7 -16 -22 -30 -15 -14 -27 -29 -27 -33 0 -5 -10
-20 -22 -34 -13 -15 -23 -32 -23 -39 0 -7 -9 -23 -20 -35 -12 -12 -17 -22 -13
-22 4 0 3 -4 -3 -8 -10 -6 -29 -36 -78 -127 -6 -11 -15 -23 -21 -27 -5 -4 -6
-10 -3 -14 4 -3 -2 -15 -12 -27 -11 -11 -17 -24 -14 -29 3 -4 0 -8 -7 -8 -7 0
-9 -3 -6 -7 4 -3 -1 -15 -10 -26 -10 -10 -17 -21 -15 -23 1 -2 -4 -17 -12 -33
-9 -16 -12 -31 -9 -35 4 -3 1 -6 -5 -6 -7 0 -12 -6 -12 -13 0 -7 -9 -29 -20
-50 -11 -20 -17 -37 -14 -37 4 0 -1 -11 -10 -25 -9 -14 -14 -25 -12 -25 3 0
-6 -25 -19 -55 -14 -30 -25 -57 -25 -60 0 -3 0 -6 -1 -7 -4 -13 -10 -45 -11
-55 -1 -7 -5 -13 -9 -13 -4 0 -10 -17 -15 -37 -9 -43 -10 -51 -14 -58 -3 -5
-3 -6 -15 -50 -4 -16 -10 -34 -13 -40 -3 -5 -7 -25 -9 -44 -2 -18 -9 -43 -14
-54 -9 -15 -8 -18 3 -11 10 6 11 5 1 -7 -13 -16 -21 -49 -30 -126 -3 -29 -9
-53 -12 -53 -3 0 -6 -17 -7 -38 -2 -67 -12 -153 -18 -159 -3 -3 -1 -12 5 -20
6 -7 7 -13 2 -13 -12 0 -11 -53 2 -62 6 -5 6 -8 -1 -8 -7 0 -12 -19 -12 -47 0
-27 -1 -131 -2 -231 -1 -115 3 -188 9 -196 6 -7 8 -16 4 -20 -12 -12 -12 -36
0 -36 8 0 8 -3 2 -8 -11 -8 -15 -52 -5 -52 4 0 10 -24 13 -52 7 -69 16 -129
23 -149 2 -9 7 -33 9 -54 3 -20 7 -40 10 -44 2 -4 7 -23 10 -42 9 -46 13 -64
15 -64 2 0 9 -30 14 -55 2 -8 6 -22 9 -30 2 -8 12 -36 22 -62 9 -26 13 -53 9
-59 -4 -8 -3 -9 4 -5 8 4 12 0 12 -11 0 -10 7 -31 15 -47 8 -15 13 -32 10 -36
-3 -5 -1 -10 5 -12 5 -1 11 -15 12 -31 1 -15 6 -27 10 -27 4 0 8 -7 8 -15 0
-8 5 -15 11 -15 5 0 7 -5 4 -10 -4 -6 0 -22 9 -35 9 -13 16 -31 16 -40 0 -8 5
-15 10 -15 6 0 10 -7 10 -15 0 -8 4 -15 10 -15 5 0 7 -7 4 -15 -4 -8 -1 -15 5
-15 6 0 10 -3 10 -7 -3 -20 2 -34 11 -28 6 3 7 -1 4 -9 -3 -9 -2 -16 4 -16 8
0 22 -32 21 -48 0 -1 7 -10 16 -18 8 -9 15 -22 15 -30 0 -8 4 -13 8 -10 4 2 9
-5 9 -17 1 -12 7 -23 13 -25 5 -2 10 -10 10 -18 0 -8 5 -14 11 -14 5 0 7 -5 4
-10 -3 -6 1 -13 9 -16 9 -3 14 -10 11 -14 -3 -4 2 -13 10 -20 8 -7 15 -19 15
-26 0 -8 4 -14 9 -14 5 0 14 -13 21 -30 7 -16 15 -30 19 -30 3 0 17 -18 31
-40 14 -22 28 -40 33 -40 4 0 6 -4 2 -9 -3 -6 1 -13 9 -18 8 -4 16 -15 18 -23
2 -8 11 -21 21 -28 9 -7 17 -20 17 -28 0 -8 7 -14 16 -14 8 0 13 -4 9 -9 -3
-5 5 -17 17 -25 12 -9 18 -16 13 -16 -5 0 3 -11 18 -25 15 -14 27 -30 27 -35
0 -6 7 -10 15 -10 9 0 12 -6 8 -17 -5 -13 -3 -15 12 -9 11 4 17 4 13 1 -7 -7
14 -36 44 -63 9 -9 15 -19 12 -24 -3 -4 -1 -8 4 -8 11 0 184 -170 174 -170 -4
0 7 -8 25 -16 18 -9 35 -25 38 -35 4 -11 11 -17 16 -13 6 3 13 -3 16 -15 3
-11 9 -18 15 -15 5 3 20 -6 34 -21 13 -14 24 -23 24 -19 0 3 13 -8 29 -25 15
-16 31 -28 34 -24 4 3 9 -2 13 -11 3 -9 12 -16 19 -16 8 0 21 -8 31 -18 10 -9
21 -17 26 -17 5 0 12 -5 16 -11 4 -6 23 -19 42 -29 19 -10 46 -26 59 -36 13
-10 27 -16 32 -13 5 3 8 0 7 -8 -2 -7 3 -12 10 -11 6 2 12 -2 12 -8 0 -5 4 -8
9 -4 5 3 15 0 23 -7 17 -16 87 -58 110 -65 10 -3 18 -10 18 -15 0 -5 5 -6 10
-3 6 3 10 1 10 -5 0 -6 4 -8 10 -5 5 3 10 1 10 -5 0 -6 4 -9 9 -6 5 4 11 3 13
-1 6 -14 229 -117 261 -122 4 0 20 -7 36 -15 16 -9 31 -12 35 -9 3 4 6 1 6 -6
0 -6 6 -11 13 -10 6 1 28 -5 47 -14 19 -8 44 -17 55 -19 11 -1 22 -6 25 -10 3
-4 20 -8 38 -10 18 -1 32 -6 32 -10 0 -4 9 -8 21 -8 11 0 28 -4 38 -10 20 -10
62 -20 104 -25 15 -2 33 -7 40 -12 7 -5 27 -9 45 -9 17 1 32 -3 32 -7 0 -5 8
-7 18 -6 9 1 19 0 22 -1 14 -5 50 -10 88 -12 23 -2 42 -5 42 -9 0 -6 53 -11
147 -13 29 0 53 -4 53 -7 0 -3 52 -5 116 -5 64 1 117 -1 119 -4 3 -6 136 -5
143 0 1 1 52 3 112 4 61 2 111 4 113 6 1 1 27 3 57 5 102 5 341 42 422 66 18
5 49 12 68 15 19 3 41 11 48 16 6 6 12 8 12 5 0 -3 28 3 62 14 34 10 64 16 67
14 2 -3 11 1 19 7 8 7 21 13 29 14 8 1 22 6 31 10 9 4 19 8 22 9 3 1 12 4 20
8 8 3 36 13 63 23 26 9 47 21 47 26 0 5 4 7 9 3 5 -3 34 8 65 24 31 16 53 23
49 17 -3 -6 3 -3 14 6 11 10 27 18 36 18 9 0 17 4 17 9 0 5 14 12 30 16 17 4
30 11 30 16 0 5 7 9 15 9 8 0 15 5 15 11 0 5 4 8 9 4 5 -3 15 1 23 8 7 7 18
15 23 16 27 9 41 16 53 28 7 7 20 13 28 13 8 0 14 5 14 11 0 5 5 7 10 4 6 -3
10 -1 10 4 0 6 7 11 15 11 7 0 19 8 24 17 6 10 11 14 11 9 0 -4 15 3 34 17 18
15 36 23 40 20 3 -4 6 -1 6 5 0 7 7 12 16 12 8 0 12 5 9 10 -3 6 -1 10 5 10
11 0 151 98 162 115 4 5 8 7 8 3 0 -4 15 7 34 25 83 77 105 97 109 97 3 0 22
16 43 35 20 19 41 35 45 35 5 0 8 3 7 8 -1 4 28 37 65 74 37 37 67 70 67 74 0
4 19 24 42 46 23 21 38 38 34 38 -4 0 7 13 24 30 17 16 28 30 24 30 -3 0 4 9
17 20 13 10 20 19 15 20 -5 0 3 11 18 25 14 13 26 31 26 40 0 9 4 14 9 11 5
-4 15 7 23 24 7 16 16 30 20 30 5 0 8 7 8 15 0 7 8 19 18 24 9 6 14 11 9 11
-4 0 9 22 28 50 19 27 35 54 35 59 0 5 7 11 15 15 8 3 14 11 13 18 -2 7 4 12
12 10 8 -2 12 -1 8 3 -8 9 11 65 23 65 5 0 9 7 9 15 0 8 5 15 12 15 6 0 8 3 5
7 -4 3 0 15 10 25 9 10 13 18 9 18 -4 0 5 17 19 37 14 21 25 43 25 50 0 7 4
13 10 13 5 0 9 3 8 8 -2 10 14 46 23 52 4 3 9 14 11 25 1 11 9 26 16 33 7 8
10 18 7 23 -4 5 -2 9 4 9 5 0 12 13 16 30 4 16 12 33 18 37 7 5 12 14 13 21 3
38 5 43 14 37 6 -3 7 1 4 10 -4 8 -1 22 6 30 7 8 10 15 6 15 -4 0 1 15 11 32
9 18 17 40 18 48 2 17 24 88 35 110 4 8 6 23 4 32 -1 10 2 18 7 18 6 0 9 6 8
13 -1 6 1 20 4 30 17 44 20 54 23 77 1 14 7 43 13 65 28 116 50 340 55 565 1
52 5 100 8 106 4 6 4 14 0 18 -4 4 -8 42 -10 84 -2 81 -7 145 -18 252 -4 36
-7 75 -7 88 -1 12 -4 22 -7 22 -4 0 -7 12 -7 28 -1 42 -9 91 -16 98 -3 3 -3
12 -1 19 3 7 1 15 -3 18 -5 3 -8 20 -7 36 1 17 -1 31 -5 31 -4 0 -8 14 -9 31
-1 17 -9 46 -16 64 -8 18 -12 36 -8 39 3 3 1 6 -4 6 -5 0 -11 12 -12 27 -1 15
-9 37 -17 50 -12 17 -12 23 -3 23 9 0 9 3 2 8 -10 7 -44 94 -46 120 -1 6 -6
12 -11 12 -6 0 -8 3 -4 6 3 4 -2 23 -13 44 -11 21 -16 40 -13 44 4 3 0 6 -7 6
-7 0 -11 3 -7 6 3 4 -5 26 -18 51 -14 24 -25 50 -25 58 0 8 -4 15 -10 15 -5 0
-10 6 -10 13 0 15 -42 101 -52 105 -5 2 -8 9 -8 16 0 20 -30 76 -41 76 -5 0
-8 3 -7 8 4 13 -13 52 -23 52 -5 0 -9 4 -9 10 0 14 -61 113 -78 128 -9 6 -11
12 -4 12 6 0 -2 14 -18 32 -16 17 -28 34 -25 36 2 2 -14 27 -36 56 -21 28 -43
56 -47 61 -32 43 -80 103 -94 119 -10 11 -18 23 -18 27 0 4 -9 11 -20 14 -11
4 -18 10 -15 15 3 5 -12 26 -32 48 -21 21 -75 77 -120 124 -45 47 -84 83 -87
80 -3 -3 -6 -1 -6 4 0 16 -40 55 -51 49 -5 -4 -9 1 -9 9 0 9 -7 16 -16 16 -8
0 -12 5 -9 10 3 6 2 10 -4 10 -5 0 -21 10 -35 23 -13 12 -39 34 -57 47 -18 14
-41 32 -50 42 -10 9 -20 14 -23 11 -3 -4 -6 -1 -6 6 0 7 -4 9 -10 6 -5 -3 -10
1 -10 9 0 9 -9 16 -21 16 -11 0 -17 5 -14 10 3 6 -1 10 -9 10 -9 0 -16 5 -16
12 0 6 -3 9 -6 5 -6 -6 -72 38 -85 56 -3 5 -10 9 -15 9 -18 1 -54 21 -54 30 0
5 -4 7 -9 4 -5 -3 -11 1 -15 9 -3 8 -15 15 -26 15 -11 0 -20 5 -20 10 0 6 -6
10 -13 10 -7 0 -19 6 -25 13 -7 6 -16 12 -20 12 -4 1 -17 6 -29 13 -13 7 -23
9 -23 5 0 -4 -5 0 -11 10 -6 9 -14 15 -20 12 -5 -4 -9 -1 -9 4 0 6 -9 11 -20
11 -11 0 -20 5 -20 10 0 6 -6 10 -13 10 -7 0 -32 9 -55 20 -22 11 -46 20 -52
20 -5 0 -10 5 -10 10 0 6 -11 10 -25 10 -14 0 -25 4 -25 9 0 8 -56 25 -72 22
-5 0 -8 4 -8 10 0 6 -6 9 -14 6 -8 -3 -16 -1 -18 4 -2 5 -13 11 -26 12 -12 0
-22 5 -22 9 0 4 -7 8 -15 8 -9 0 -46 10 -83 22 -37 12 -73 21 -79 21 -7 0 -13
4 -13 9 0 4 -15 8 -34 8 -19 0 -38 5 -41 10 -4 6 -10 8 -15 5 -5 -3 -11 -1
-15 4 -3 6 -12 8 -20 5 -8 -3 -20 -2 -27 2 -7 4 -21 9 -33 11 -25 3 -60 11
-60 13 0 2 -36 9 -80 14 -22 2 -40 5 -40 6 0 1 -13 4 -30 6 -45 7 -70 12 -70
14 0 2 -85 9 -157 13 -26 2 -50 6 -54 10 -4 4 -13 2 -21 -4 -7 -6 -13 -7 -13
-2 0 4 -30 8 -67 8 -38 0 -74 4 -80 9 -8 5 -13 5 -13 0z"/>
</g>
</svg>
